<svg width="852" height="847" viewBox="0 0 852 847" fill="none" xmlns="http://www.w3.org/2000/svg">
<g opacity="0.4">
<path d="M119.56 815.299L121.428 817.167L338.813 852.342L339.679 853.345C350.158 1011.86 459.284 1166.96 608.141 1230.93C653.841 1251.57 702.868 1264.24 755.312 1268.84L756.861 1271.35L791.353 1487.05C792.355 1488.73 794.725 1490.28 796.775 1489.05L798.643 1487.05L833.819 1269.84L834.639 1268.84C994.34 1258.18 1151.31 1147.05 1214.23 996.461C1233.5 951.808 1246.03 904.285 1250.23 853.345L1252.6 851.841L1468.43 817.167C1470.12 816.347 1471.67 813.795 1470.48 811.927L1468.43 809.922L1251.23 774.884L1250.18 773.881C1239.52 614.18 1128.39 457.213 977.846 394.426C933.193 375.152 885.488 362.622 834.548 358.248L833.181 355.879L798.507 140.043C798.188 138.493 796.32 138.175 795.135 137.673C792.766 137.856 791.08 139.541 790.715 142.093L756.223 357.428L755.221 358.294C596.704 368.773 441.559 477.899 377.633 626.756C356.947 672.411 344.326 721.665 339.587 773.927L337.218 775.476L121.382 809.968C119.879 810.97 118.329 813.34 119.514 815.39L119.56 815.299ZM1101.69 497.582C1093.4 502.64 1084.78 507.06 1076.31 511.798C1056.85 493.527 1036.4 477.808 1014.93 464.457L1013.93 465.46L1004.77 535.674L952.512 503.004L1012.57 463.09C960.623 430.603 903.622 410.646 841.564 403.037L837.145 374.788C937.978 384.948 1026.28 425.045 1101.73 496.58V497.582H1101.69ZM1081.73 747.09L980.762 730.505L1031.02 643.751L1033.39 640.881C1056.9 673.185 1072.98 708.543 1081.78 747.135L1081.73 747.09ZM1042.14 624.797L1058.72 597.048C1083.92 628.852 1103.88 662.842 1116.77 699.749C1122.83 717.701 1128.75 736.291 1130.48 754.881L1099.68 750.006C1090.39 704.169 1070.8 662.706 1042.18 624.842L1042.14 624.797ZM972.469 727.133L970.601 729.001C946.27 724.946 921.21 721.574 897.517 716.79L1091.39 522.916L972.469 727.087V727.133ZM878.061 628.168L861.476 526.834C899.886 535.81 936.064 551.348 967.685 575.542L967.184 576.043L878.061 628.123V628.168ZM859.425 509.247L858.56 508.381L853.684 477.58C912.188 487.239 964.45 512.254 1011.52 549.662C1002.72 555.403 993.565 560.324 984.635 565.7H983.268C945.906 537.633 904.625 518.861 859.425 509.201V509.247ZM1233.14 771.467C1223.85 769.781 1214.05 768.915 1204.89 766.591C1197.78 704.351 1178.14 646.986 1145.02 596.091L1105.61 655.962L1072.94 603.336L1142.97 594.542L1143.97 593.54C1130.76 572.216 1114.9 551.758 1096.77 532.302C1100.82 523.69 1106.75 515.534 1110.8 506.923H1111.8C1150.72 547.52 1179.65 592.355 1200.47 640.379C1217.88 681.341 1230.41 725.447 1233.09 771.467H1233.14ZM1110.8 1120.26C1105.93 1111.97 1101.32 1103.31 1096.77 1094.88C1114.9 1075.42 1130.76 1054.96 1143.97 1033.46L1142.97 1032.46L1072.94 1023.3L1105.61 971.036L1145.52 1031.09C1177.83 979.147 1197.78 922.146 1205.39 860.088L1233.64 855.669C1223.48 956.456 1183.57 1044.76 1111.85 1120.26H1110.85H1110.8ZM861.476 1100.3L878.061 998.967L964.632 1049.54L967.685 1052.09C935.244 1075.42 899.886 1091.51 861.476 1100.3ZM983.769 1060.71L1011.52 1077.29C979.714 1102.49 945.678 1122.45 908.68 1135.29C890.91 1141.4 872.138 1147.32 853.684 1149.01L858.56 1118.21C904.215 1108.91 945.86 1089.27 983.724 1060.71H983.769ZM879.428 989.171C883.483 964.84 886.855 939.779 891.639 916.086L1085.15 1109.96L881.478 991.221L879.428 989.171ZM980.398 896.63L1081.73 880.045C1072.76 918.638 1057.04 954.633 1033.02 986.3L1032.52 985.799L980.443 896.63H980.398ZM1099.18 878.04L1100.18 877.175L1130.8 872.254C1120.83 930.758 1096.45 983.748 1058.22 1030.09C1053.16 1021.11 1048.24 1012 1042.68 1003.34V1001.84C1070.89 964.43 1089.71 923.194 1099.18 878.04ZM837.099 1251.71C838.648 1242.41 839.651 1232.57 842.02 1223.46C904.26 1216.53 961.625 1196.71 1012.57 1163.59L952.512 1124.18L1005.09 1091.55L1013.89 1161.72L1014.89 1162.59C1036.35 1149.42 1056.85 1133.47 1076.26 1115.38C1084.88 1119.44 1093.03 1125.36 1101.64 1129.42V1130.42C1060.86 1169.33 1016.21 1198.26 968.186 1219.04C927.225 1236.45 883.119 1248.98 837.054 1251.71H837.099ZM805.478 817.623H1412.89L895.968 901.551L889.224 902.053L805.478 817.623ZM799.053 195.631L882.982 712.416L883.301 719.341L799.053 803.088V195.631ZM479.013 506.877C484.07 515.17 488.49 523.645 493.229 532.256C474.958 551.712 459.238 572.17 445.842 593.494L446.845 594.497L517.013 603.792L484.389 655.917L444.475 596.046C411.988 647.988 392.031 704.989 384.422 767.047L356.173 771.421C366.333 670.588 406.43 582.285 477.965 506.877H478.967H479.013ZM728.521 526.88L711.935 627.713L625.136 577.456L622.266 575.086C654.616 551.758 689.928 535.674 728.521 526.88ZM606.227 566.247C597.114 560.825 586.589 555.266 578.798 549.662C625.455 511.57 677.899 487.421 736.266 477.58L731.391 508.7C685.554 518.177 644.091 537.815 606.227 566.201V566.247ZM710.432 638.01C706.377 662.387 703.005 687.401 698.221 711.094L504.893 517.084L708.381 636.005L710.432 638.056V638.01ZM609.599 730.505L508.265 747.09C517.013 708.497 532.778 672.502 556.973 640.835L609.599 730.505ZM490.677 748.958L489.675 749.96L459.056 754.836C468.715 696.332 493.73 644.07 531.092 597.003L547.176 623.749V625.252C519.064 662.615 500.155 703.895 490.632 748.912L490.677 748.958ZM752.897 374.788C751.211 384.447 750.391 394.426 747.976 403.538C685.691 410.646 628.371 430.467 577.431 463.592L637.347 503.004L584.721 535.674L575.927 465.46L574.925 464.457C553.601 477.808 533.143 493.573 513.687 511.798C505.03 507.06 496.601 502.685 488.308 497.582V496.58C563.762 425.045 651.928 384.948 752.897 374.788ZM707.014 914.583L706.513 907.794L790.761 824.093L790.761 1431.55L707.014 914.583ZM508.265 880.045H509.313L609.098 896.63L558.841 983.247L556.471 986.3C533.143 953.813 517.013 918.638 508.265 880.045ZM547.678 1002.34L531.092 1030.09C493.73 983.065 468.67 930.803 459.056 872.254C469.718 873.074 479.514 876.309 490.176 877.175C499.608 922.83 519.246 964.429 547.678 1002.34ZM618.894 897.997C643.271 902.053 668.65 905.424 692.343 910.163L498.514 1103.67L618.939 897.952L618.894 897.997ZM606.227 1060.71C643.772 1089.32 685.053 1108.23 730.343 1117.71L731.391 1118.71L736.266 1149.51C677.58 1139.85 625.455 1114.84 578.433 1077.29C587.409 1071.19 596.841 1066.31 606.227 1060.71ZM711.935 998.967L728.521 1100.3C689.974 1091.32 653.932 1075.61 622.266 1051.59L622.767 1051.09L711.935 999.013V998.967ZM488.308 1129.42C496.965 1125.36 504.893 1119.44 513.687 1115.38C533.143 1133.47 553.601 1149.42 574.925 1162.59L575.927 1161.72L585.222 1091.55L637.347 1124.18L577.431 1164.09C629.374 1196.58 686.374 1216.53 748.478 1223.96L752.852 1252.21C651.882 1242.19 563.716 1202.14 488.262 1130.42V1129.42H488.308ZM356.173 855.714C365.832 857.218 375.811 858.266 384.924 860.635C392.031 922.875 411.852 980.24 444.794 1031.13L484.389 971.082L517.013 1023.84L446.845 1032.5L445.842 1033.5C459.193 1055.01 474.958 1075.47 493.229 1094.92C488.49 1103.35 484.07 1112.01 479.013 1120.3H478.01C406.43 1044.85 366.333 956.547 356.218 855.714H356.173ZM176.879 809.376L693.846 725.629L700.59 725.128L784.518 809.376H176.879Z" fill="#F2F4F7"/>
<path d="M309.425 779.804C326.055 538.315 519.52 344.76 760.962 327.993L768.344 281.882C495.872 295.369 276.664 514.668 263.314 787.185L309.425 779.804Z" fill="#F2F4F7"/>
<path d="M828.761 327.948C1070.25 344.579 1263.85 538.088 1280.57 779.531L1326.68 786.958C1313.24 514.441 1093.9 295.187 821.38 281.837L828.761 327.948Z" fill="#F2F4F7"/>
<path d="M1280.57 847.33C1263.94 1088.77 1070.43 1282.33 829.035 1299.1L821.562 1345.21C1094.08 1331.76 1313.33 1112.47 1326.68 839.903L1280.57 847.33Z" fill="#F2F4F7"/>
<path d="M761.235 1299.1C519.792 1282.46 326.237 1089 309.47 847.558L263.359 840.085C276.846 1112.56 496.099 1331.81 768.617 1345.16L761.235 1299.05V1299.1Z" fill="#F2F4F7"/>
</g>
</svg>
