<svg width="25" height="25" viewBox="0 0 25 25" fill="none" xmlns="http://www.w3.org/2000/svg">
<g id="Icon-DownloadSimple">
<path id="Vector" d="M8.45497 11.7504C8.34996 11.6455 8.27844 11.5118 8.24945 11.3662C8.22046 11.2206 8.23531 11.0698 8.29213 10.9326C8.34894 10.7955 8.44516 10.6783 8.56861 10.5959C8.69205 10.5135 8.83717 10.4696 8.9856 10.4697H11.9856V4.46973C11.9856 4.27081 12.0646 4.08005 12.2053 3.9394C12.3459 3.79874 12.5367 3.71973 12.7356 3.71973C12.9345 3.71973 13.1253 3.79874 13.2659 3.9394C13.4066 4.08005 13.4856 4.27081 13.4856 4.46973V10.4697H16.4856C16.634 10.4696 16.7791 10.5135 16.9026 10.5959C17.026 10.6783 17.1222 10.7955 17.1791 10.9326C17.2359 11.0698 17.2507 11.2206 17.2217 11.3662C17.1928 11.5118 17.1212 11.6455 17.0162 11.7504L13.2662 15.5004C13.1966 15.5701 13.1138 15.6254 13.0228 15.6631C12.9318 15.7009 12.8342 15.7203 12.7356 15.7203C12.637 15.7203 12.5394 15.7009 12.4484 15.6631C12.3573 15.6254 12.2746 15.5701 12.205 15.5004L8.45497 11.7504ZM20.9856 14.2197C20.7867 14.2197 20.5959 14.2987 20.4553 14.4394C20.3146 14.58 20.2356 14.7708 20.2356 14.9697V20.2197H5.2356V14.9697C5.2356 14.7708 5.15658 14.58 5.01593 14.4394C4.87527 14.2987 4.68451 14.2197 4.4856 14.2197C4.28668 14.2197 4.09592 14.2987 3.95527 14.4394C3.81461 14.58 3.7356 14.7708 3.7356 14.9697V20.2197C3.7356 20.6176 3.89363 20.9991 4.17494 21.2804C4.45624 21.5617 4.83777 21.7197 5.2356 21.7197H20.2356C20.6334 21.7197 21.015 21.5617 21.2963 21.2804C21.5776 20.9991 21.7356 20.6176 21.7356 20.2197V14.9697C21.7356 14.7708 21.6566 14.58 21.5159 14.4394C21.3753 14.2987 21.1845 14.2197 20.9856 14.2197Z" fill="#40444D"/>
</g>
</svg>
