<svg width="12" height="12" viewBox="0 0 12 12" fill="none" xmlns="http://www.w3.org/2000/svg">
<path fill-rule="evenodd" clip-rule="evenodd" d="M0.46967 0.469914C0.762563 0.177021 1.23744 0.177021 1.53033 0.469914L6 4.93958L10.4697 0.469914C10.7626 0.177021 11.2374 0.177021 11.5303 0.469914C11.8232 0.762807 11.8232 1.23768 11.5303 1.53057L7.06066 6.00024L11.5303 10.4699C11.8232 10.7628 11.8232 11.2377 11.5303 11.5306C11.2374 11.8235 10.7626 11.8235 10.4697 11.5306L6 7.0609L1.53033 11.5306C1.23744 11.8235 0.762563 11.8235 0.46967 11.5306C0.176777 11.2377 0.176777 10.7628 0.46967 10.4699L4.93934 6.00024L0.46967 1.53057C0.176777 1.23768 0.176777 0.762807 0.46967 0.469914Z" fill="#17181C"/>
</svg>
