<svg width="32" height="33" viewBox="0 0 32 33" fill="none" xmlns="http://www.w3.org/2000/svg">
<path d="M26.2075 16.2319C26.3005 16.3247 26.3743 16.435 26.4246 16.5564C26.4749 16.6778 26.5008 16.8079 26.5008 16.9394C26.5008 17.0708 26.4749 17.2009 26.4246 17.3223C26.3743 17.4437 26.3005 17.554 26.2075 17.6469L15.9513 27.8969C14.6383 29.2097 12.8576 29.9471 11.0008 29.947C9.14412 29.9469 7.36348 29.2092 6.05066 27.8962C4.73784 26.5832 4.00037 24.8025 4.00049 22.9458C4.00061 21.0891 4.7383 19.3084 6.05129 17.9956L18.4588 5.4056C19.3962 4.46723 20.6679 3.93967 21.9943 3.93897C23.3206 3.93826 24.5929 4.46448 25.5313 5.40185C26.4697 6.33923 26.9972 7.61098 26.9979 8.93733C26.9986 10.2637 26.4724 11.536 25.535 12.4744L13.125 25.0644C12.5615 25.6279 11.7971 25.9446 11 25.9446C10.203 25.9446 9.43862 25.6279 8.87504 25.0644C8.31145 24.5008 7.99483 23.7364 7.99483 22.9394C7.99483 22.1423 8.31145 21.3779 8.87504 20.8144L19.2875 10.2369C19.3787 10.1395 19.4885 10.0615 19.6103 10.0072C19.7322 9.95298 19.8636 9.92365 19.997 9.92096C20.1303 9.91828 20.2629 9.94229 20.3868 9.9916C20.5107 10.0409 20.6235 10.1145 20.7186 10.208C20.8136 10.3016 20.889 10.4132 20.9403 10.5363C20.9915 10.6595 21.0177 10.7916 21.0171 10.925C21.0165 11.0583 20.9893 11.1902 20.937 11.3129C20.8847 11.4356 20.8084 11.5466 20.7125 11.6394L10.2988 22.2281C10.2055 22.3206 10.1314 22.4306 10.0807 22.5517C10.03 22.6728 10.0036 22.8028 10.003 22.9341C10.0025 23.0655 10.0279 23.1956 10.0777 23.3172C10.1274 23.4387 10.2007 23.5492 10.2932 23.6425C10.3857 23.7357 10.4956 23.8098 10.6168 23.8606C10.7379 23.9113 10.8678 23.9377 10.9992 23.9382C11.1305 23.9387 11.2607 23.9134 11.3822 23.8636C11.5038 23.8138 11.6143 23.7406 11.7075 23.6481L24.1163 11.0644C24.6799 10.5019 24.997 9.73866 24.9978 8.94245C24.9986 8.14624 24.6831 7.38231 24.1207 6.81873C23.5582 6.25514 22.795 5.93806 21.9988 5.93724C21.2025 5.93642 20.4386 6.25193 19.875 6.81435L7.47004 19.3994C7.00532 19.8633 6.63654 20.4143 6.38476 21.0208C6.13297 21.6273 6.00311 22.2774 6.00259 22.9341C6.00207 23.5908 6.1309 24.2412 6.38171 24.8481C6.63253 25.455 7.00044 26.0065 7.46441 26.4712C7.92839 26.9359 8.47935 27.3047 9.08585 27.5565C9.69235 27.8083 10.3425 27.9382 10.9992 27.9387C11.6559 27.9392 12.3062 27.8104 12.9131 27.5596C13.52 27.3087 14.0716 26.9408 14.5363 26.4769L24.7938 16.2269C24.982 16.0401 25.2366 15.9358 25.5017 15.9367C25.7668 15.9376 26.0207 16.0438 26.2075 16.2319Z" fill="#ABB1BA"/>
</svg>
