<svg width="20" height="21" viewBox="0 0 20 21" fill="none" xmlns="http://www.w3.org/2000/svg">
<path d="M18.0407 17.5019C16.8508 15.4449 15.0172 13.9698 12.8774 13.2706C13.9358 12.6405 14.7582 11.6804 15.2182 10.5377C15.6781 9.39494 15.7503 8.13282 15.4235 6.94513C15.0968 5.75744 14.3892 4.70984 13.4094 3.96323C12.4296 3.21661 11.2318 2.81226 10 2.81226C8.76821 2.81226 7.57044 3.21661 6.59067 3.96323C5.6109 4.70984 4.90331 5.75744 4.57654 6.94513C4.24978 8.13282 4.32193 9.39494 4.78189 10.5377C5.24186 11.6804 6.06422 12.6405 7.12268 13.2706C4.98284 13.9691 3.14925 15.4441 1.9594 17.5019C1.91577 17.573 1.88683 17.6522 1.87429 17.7347C1.86174 17.8172 1.86585 17.9014 1.88638 17.9823C1.9069 18.0632 1.94341 18.1392 1.99377 18.2057C2.04413 18.2723 2.10731 18.3281 2.17958 18.3698C2.25185 18.4116 2.33175 18.4384 2.41457 18.4488C2.49738 18.4592 2.58143 18.4528 2.66176 18.4302C2.74209 18.4075 2.81708 18.369 2.88228 18.3169C2.94749 18.2649 3.00161 18.2002 3.04143 18.1269C4.51331 15.5831 7.11487 14.0644 10 14.0644C12.8852 14.0644 15.4867 15.5831 16.9586 18.1269C16.9984 18.2002 17.0526 18.2649 17.1178 18.3169C17.183 18.369 17.258 18.4075 17.3383 18.4302C17.4186 18.4528 17.5027 18.4592 17.5855 18.4488C17.6683 18.4384 17.7482 18.4116 17.8205 18.3698C17.8927 18.3281 17.9559 18.2723 18.0063 18.2057C18.0566 18.1392 18.0932 18.0632 18.1137 17.9823C18.1342 17.9014 18.1383 17.8172 18.1258 17.7347C18.1132 17.6522 18.0843 17.573 18.0407 17.5019ZM5.62503 8.43938C5.62503 7.57409 5.88162 6.72823 6.36235 6.00876C6.84308 5.2893 7.52636 4.72854 8.32579 4.39741C9.12521 4.06627 10.0049 3.97964 10.8535 4.14845C11.7022 4.31726 12.4818 4.73393 13.0936 5.34579C13.7055 5.95764 14.1222 6.73719 14.291 7.58586C14.4598 8.43453 14.3731 9.31419 14.042 10.1136C13.7109 10.913 13.1501 11.5963 12.4306 12.0771C11.7112 12.5578 10.8653 12.8144 10 12.8144C8.84009 12.8131 7.72801 12.3518 6.90781 11.5316C6.0876 10.7114 5.62627 9.59932 5.62503 8.43938Z" fill="#7A7F89"/>
</svg>
