<svg width="20" height="21" viewBox="0 0 20 21" fill="none" xmlns="http://www.w3.org/2000/svg">
<path d="M17.3281 14.465C16.8945 13.7182 16.2499 11.6049 16.2499 8.84473C16.2499 7.18712 15.5915 5.59741 14.4194 4.42531C13.2473 3.25321 11.6576 2.59473 9.99995 2.59473C8.34235 2.59473 6.75263 3.25321 5.58053 4.42531C4.40843 5.59741 3.74995 7.18712 3.74995 8.84473C3.74995 11.6057 3.10464 13.7182 2.67104 14.465C2.56032 14.6549 2.50162 14.8706 2.50086 15.0904C2.50011 15.3102 2.55733 15.5264 2.66674 15.717C2.77616 15.9076 2.93392 16.066 3.12409 16.1762C3.31427 16.2865 3.53015 16.3446 3.74995 16.3447H6.93823C7.08243 17.0503 7.46591 17.6845 8.0238 18.1399C8.5817 18.5953 9.27977 18.844 9.99995 18.844C10.7201 18.844 11.4182 18.5953 11.9761 18.1399C12.534 17.6845 12.9175 17.0503 13.0617 16.3447H16.2499C16.4697 16.3444 16.6855 16.2862 16.8755 16.1759C17.0656 16.0657 17.2232 15.9073 17.3326 15.7166C17.4419 15.526 17.499 15.31 17.4983 15.0902C17.4975 14.8705 17.4388 14.6549 17.3281 14.465ZM9.99995 17.5947C9.61231 17.5946 9.23423 17.4743 8.91776 17.2505C8.60129 17.0266 8.36197 16.7102 8.23276 16.3447H11.7671C11.6379 16.7102 11.3986 17.0266 11.0821 17.2505C10.7657 17.4743 10.3876 17.5946 9.99995 17.5947ZM3.74995 15.0947C4.35151 14.0604 4.99995 11.6635 4.99995 8.84473C4.99995 7.51864 5.52673 6.24687 6.46441 5.30919C7.4021 4.37151 8.67387 3.84473 9.99995 3.84473C11.326 3.84473 12.5978 4.37151 13.5355 5.30919C14.4732 6.24687 14.9999 7.51864 14.9999 8.84473C14.9999 11.6611 15.6468 14.058 16.2499 15.0947H3.74995Z" fill="#7A7F89"/>
</svg>
