<svg width="20" height="21" viewBox="0 0 20 21" fill="none" xmlns="http://www.w3.org/2000/svg">
<path d="M17.0961 8.82665L10.8461 2.92977C10.843 2.92711 10.8402 2.92424 10.8375 2.92118C10.6074 2.71191 10.3075 2.59595 9.99648 2.59595C9.68545 2.59595 9.38558 2.71191 9.15547 2.92118L9.14688 2.92977L2.90391 8.82665C2.77656 8.94375 2.67491 9.08601 2.60538 9.24442C2.53586 9.40284 2.49997 9.57396 2.5 9.74696V16.9696C2.5 17.3011 2.6317 17.6191 2.86612 17.8535C3.10054 18.0879 3.41848 18.2196 3.75 18.2196H7.5C7.83152 18.2196 8.14946 18.0879 8.38388 17.8535C8.6183 17.6191 8.75 17.3011 8.75 16.9696V13.2196H11.25V16.9696C11.25 17.3011 11.3817 17.6191 11.6161 17.8535C11.8505 18.0879 12.1685 18.2196 12.5 18.2196H16.25C16.5815 18.2196 16.8995 18.0879 17.1339 17.8535C17.3683 17.6191 17.5 17.3011 17.5 16.9696V9.74696C17.5 9.57396 17.4641 9.40284 17.3946 9.24442C17.3251 9.08601 17.2234 8.94375 17.0961 8.82665ZM16.25 16.9696H12.5V13.2196C12.5 12.8881 12.3683 12.5702 12.1339 12.3357C11.8995 12.1013 11.5815 11.9696 11.25 11.9696H8.75C8.41848 11.9696 8.10054 12.1013 7.86612 12.3357C7.6317 12.5702 7.5 12.8881 7.5 13.2196V16.9696H3.75V9.74696L3.75859 9.73915L10 3.84462L16.2422 9.73759L16.2508 9.7454L16.25 16.9696Z" fill="#7A7F89"/>
</svg>
