<svg width="20" height="21" viewBox="0 0 20 21" fill="none" xmlns="http://www.w3.org/2000/svg">
<path d="M17.3282 14.6848C16.8946 13.9379 16.2501 11.8246 16.2501 9.06445C16.2501 7.40685 15.5916 5.81714 14.4195 4.64504C13.2474 3.47293 11.6577 2.81445 10.0001 2.81445C8.34247 2.81445 6.75276 3.47293 5.58065 4.64504C4.40855 5.81714 3.75007 7.40685 3.75007 9.06445C3.75007 11.8254 3.10476 13.9379 2.67116 14.6848C2.56044 14.8746 2.50174 15.0904 2.50098 15.3102C2.50023 15.53 2.55745 15.7461 2.66687 15.9367C2.77629 16.1273 2.93404 16.2858 3.12422 16.396C3.31439 16.5062 3.53027 16.5643 3.75007 16.5645H6.93835C7.08255 17.27 7.46603 17.9042 8.02393 18.3596C8.58182 18.815 9.2799 19.0638 10.0001 19.0638C10.7202 19.0638 11.4183 18.815 11.9762 18.3596C12.5341 17.9042 12.9176 17.27 13.0618 16.5645H16.2501C16.4698 16.5642 16.6856 16.5059 16.8757 16.3957C17.0657 16.2854 17.2234 16.127 17.3327 15.9364C17.442 15.7458 17.4992 15.5297 17.4984 15.31C17.4976 15.0902 17.4389 14.8746 17.3282 14.6848ZM10.0001 17.8145C9.61243 17.8143 9.23435 17.6941 8.91788 17.4702C8.60141 17.2464 8.3621 16.9299 8.23288 16.5645H11.7673C11.638 16.9299 11.3987 17.2464 11.0823 17.4702C10.7658 17.6941 10.3877 17.8143 10.0001 17.8145ZM3.75007 15.3145C4.35163 14.2801 5.00007 11.8832 5.00007 9.06445C5.00007 7.73837 5.52686 6.4666 6.46454 5.52892C7.40222 4.59124 8.67399 4.06445 10.0001 4.06445C11.3262 4.06445 12.5979 4.59124 13.5356 5.52892C14.4733 6.4666 15.0001 7.73837 15.0001 9.06445C15.0001 11.8809 15.6469 14.2777 16.2501 15.3145H3.75007Z" fill="#7A7F89"/>
</svg>
