<svg width="32" height="32" viewBox="0 0 32 32" fill="none" xmlns="http://www.w3.org/2000/svg">
<g id="Icon-ArrowsOutCardinal">
<path id="Vector" d="M11.2926 7.70755C11.1996 7.61468 11.1258 7.50439 11.0755 7.38299C11.0252 7.2616 10.9993 7.13147 10.9993 7.00005C10.9993 6.86864 11.0252 6.73851 11.0755 6.61711C11.1258 6.49572 11.1996 6.38543 11.2926 6.29255L15.2926 2.29255C15.3854 2.19958 15.4957 2.12582 15.6171 2.07549C15.7385 2.02517 15.8686 1.99927 16.0001 1.99927C16.1315 1.99927 16.2616 2.02517 16.383 2.07549C16.5044 2.12582 16.6147 2.19958 16.7076 2.29255L20.7076 6.29255C20.8952 6.4802 21.0006 6.73469 21.0006 7.00005C21.0006 7.26542 20.8952 7.51991 20.7076 7.70755C20.5199 7.8952 20.2654 8.00061 20.0001 8.00061C19.7347 8.00061 19.4802 7.8952 19.2926 7.70755L17.0001 5.4138V12.0001C17.0001 12.2653 16.8947 12.5196 16.7072 12.7072C16.5196 12.8947 16.2653 13.0001 16.0001 13.0001C15.7348 13.0001 15.4805 12.8947 15.2929 12.7072C15.1054 12.5196 15.0001 12.2653 15.0001 12.0001V5.4138L12.7076 7.70755C12.6147 7.80053 12.5044 7.87429 12.383 7.92461C12.2616 7.97494 12.1315 8.00084 12.0001 8.00084C11.8686 8.00084 11.7385 7.97494 11.6171 7.92461C11.4957 7.87429 11.3854 7.80053 11.2926 7.70755ZM19.2926 24.2926L17.0001 26.5863V20.0001C17.0001 19.7348 16.8947 19.4805 16.7072 19.2929C16.5196 19.1054 16.2653 19.0001 16.0001 19.0001C15.7348 19.0001 15.4805 19.1054 15.2929 19.2929C15.1054 19.4805 15.0001 19.7348 15.0001 20.0001V26.5863L12.7076 24.2926C12.5199 24.1049 12.2654 23.9995 12.0001 23.9995C11.7347 23.9995 11.4802 24.1049 11.2926 24.2926C11.1049 24.4802 10.9995 24.7347 10.9995 25.0001C10.9995 25.2654 11.1049 25.5199 11.2926 25.7076L15.2926 29.7076C15.3854 29.8005 15.4957 29.8743 15.6171 29.9246C15.7385 29.9749 15.8686 30.0008 16.0001 30.0008C16.1315 30.0008 16.2616 29.9749 16.383 29.9246C16.5044 29.8743 16.6147 29.8005 16.7076 29.7076L20.7076 25.7076C20.8952 25.5199 21.0006 25.2654 21.0006 25.0001C21.0006 24.7347 20.8952 24.4802 20.7076 24.2926C20.5199 24.1049 20.2654 23.9995 20.0001 23.9995C19.7347 23.9995 19.4802 24.1049 19.2926 24.2926ZM29.7076 15.2926L25.7076 11.2926C25.5199 11.1049 25.2654 10.9995 25.0001 10.9995C24.7347 10.9995 24.4802 11.1049 24.2926 11.2926C24.1049 11.4802 23.9995 11.7347 23.9995 12.0001C23.9995 12.2654 24.1049 12.5199 24.2926 12.7076L26.5863 15.0001H20.0001C19.7348 15.0001 19.4805 15.1054 19.2929 15.2929C19.1054 15.4805 19.0001 15.7348 19.0001 16.0001C19.0001 16.2653 19.1054 16.5196 19.2929 16.7072C19.4805 16.8947 19.7348 17.0001 20.0001 17.0001H26.5863L24.2926 19.2926C24.1049 19.4802 23.9995 19.7347 23.9995 20.0001C23.9995 20.2654 24.1049 20.5199 24.2926 20.7076C24.4802 20.8952 24.7347 21.0006 25.0001 21.0006C25.2654 21.0006 25.5199 20.8952 25.7076 20.7076L29.7076 16.7076C29.8005 16.6147 29.8743 16.5044 29.9246 16.383C29.9749 16.2616 30.0008 16.1315 30.0008 16.0001C30.0008 15.8686 29.9749 15.7385 29.9246 15.6171C29.8743 15.4957 29.8005 15.3854 29.7076 15.2926ZM5.4138 17.0001H12.0001C12.2653 17.0001 12.5196 16.8947 12.7072 16.7072C12.8947 16.5196 13.0001 16.2653 13.0001 16.0001C13.0001 15.7348 12.8947 15.4805 12.7072 15.2929C12.5196 15.1054 12.2653 15.0001 12.0001 15.0001H5.4138L7.70755 12.7076C7.8952 12.5199 8.00061 12.2654 8.00061 12.0001C8.00061 11.7347 7.8952 11.4802 7.70755 11.2926C7.51991 11.1049 7.26542 10.9995 7.00005 10.9995C6.73469 10.9995 6.4802 11.1049 6.29255 11.2926L2.29255 15.2926C2.19958 15.3854 2.12582 15.4957 2.07549 15.6171C2.02517 15.7385 1.99927 15.8686 1.99927 16.0001C1.99927 16.1315 2.02517 16.2616 2.07549 16.383C2.12582 16.5044 2.19958 16.6147 2.29255 16.7076L6.29255 20.7076C6.4802 20.8952 6.73469 21.0006 7.00005 21.0006C7.26542 21.0006 7.51991 20.8952 7.70755 20.7076C7.8952 20.5199 8.00061 20.2654 8.00061 20.0001C8.00061 19.7347 7.8952 19.4802 7.70755 19.2926L5.4138 17.0001Z" fill="white"/>
</g>
</svg>
