<svg width="20" height="21" viewBox="0 0 20 21" fill="none" xmlns="http://www.w3.org/2000/svg">
<path d="M17.0961 9.04638L10.8461 3.1495C10.843 3.14684 10.8402 3.14396 10.8375 3.14091C10.6074 2.93164 10.3075 2.81567 9.99648 2.81567C9.68545 2.81567 9.38558 2.93164 9.15547 3.14091L9.14688 3.1495L2.90391 9.04638C2.77656 9.16348 2.67491 9.30574 2.60538 9.46415C2.53586 9.62257 2.49997 9.79369 2.5 9.96669V17.1893C2.5 17.5209 2.6317 17.8388 2.86612 18.0732C3.10054 18.3076 3.41848 18.4393 3.75 18.4393H7.5C7.83152 18.4393 8.14946 18.3076 8.38388 18.0732C8.6183 17.8388 8.75 17.5209 8.75 17.1893V13.4393H11.25V17.1893C11.25 17.5209 11.3817 17.8388 11.6161 18.0732C11.8505 18.3076 12.1685 18.4393 12.5 18.4393H16.25C16.5815 18.4393 16.8995 18.3076 17.1339 18.0732C17.3683 17.8388 17.5 17.5209 17.5 17.1893V9.96669C17.5 9.79369 17.4641 9.62257 17.3946 9.46415C17.3251 9.30574 17.2234 9.16348 17.0961 9.04638ZM16.25 17.1893H12.5V13.4393C12.5 13.1078 12.3683 12.7899 12.1339 12.5555C11.8995 12.321 11.5815 12.1893 11.25 12.1893H8.75C8.41848 12.1893 8.10054 12.321 7.86612 12.5555C7.6317 12.7899 7.5 13.1078 7.5 13.4393V17.1893H3.75V9.96669L3.75859 9.95888L10 4.06435L16.2422 9.95731L16.2508 9.96513L16.25 17.1893Z" fill="#7A7F89"/>
</svg>
