<svg width="733" height="710" viewBox="0 0 733 710" fill="none" xmlns="http://www.w3.org/2000/svg">
<path d="M0.55964 678.299L2.42777 680.167L219.813 715.342L220.679 716.345C231.158 874.862 340.284 1029.96 489.141 1093.93C534.841 1114.57 583.868 1127.24 636.312 1131.84L637.861 1134.35L672.353 1350.05C673.355 1351.73 675.725 1353.28 677.775 1352.05L679.643 1350.05L714.819 1132.84L715.639 1131.84C875.34 1121.18 1032.31 1010.05 1095.23 859.461C1114.5 814.808 1127.03 767.285 1131.23 716.345L1133.6 714.841L1349.43 680.167C1351.12 679.347 1352.67 676.795 1351.48 674.927L1349.43 672.922L1132.23 637.884L1131.18 636.881C1120.52 477.18 1009.39 320.213 858.846 257.426C814.193 238.152 766.488 225.622 715.548 221.248L714.181 218.879L679.507 3.04266C679.188 1.49349 677.32 1.17454 676.135 0.67334C673.766 0.855595 672.08 2.54146 671.715 5.09304L637.223 220.428L636.221 221.294C477.704 231.773 322.559 340.899 258.633 489.756C237.947 535.411 225.326 584.665 220.587 636.927L218.218 638.476L2.3822 672.968C0.878593 673.97 -0.670577 676.34 0.514083 678.39L0.55964 678.299ZM982.688 360.582C974.396 365.64 965.784 370.06 957.309 374.798C937.854 356.527 917.396 340.808 895.935 327.457L894.932 328.46L885.774 398.674L833.512 366.004L893.566 326.09C841.623 293.603 784.622 273.646 722.564 266.037L718.145 237.788C818.978 247.948 907.28 288.045 982.734 359.58V360.582H982.688ZM962.732 610.09L861.762 593.505L912.019 506.751L914.388 503.881C937.899 536.185 953.983 571.543 962.777 610.135L962.732 610.09ZM923.137 487.797L939.722 460.048C964.919 491.852 984.876 525.842 997.77 562.749C1003.83 580.701 1009.75 599.291 1011.48 617.881L980.684 613.006C971.389 567.169 951.796 525.706 923.182 487.842L923.137 487.797ZM853.469 590.133L851.601 592.001C827.27 587.946 802.21 584.574 778.517 579.79L972.391 385.916L853.469 590.087V590.133ZM759.061 491.168L742.476 389.834C780.886 398.81 817.064 414.348 848.685 438.542L848.184 439.043L759.061 491.123V491.168ZM740.425 372.247L739.56 371.381L734.684 340.58C793.188 350.239 845.45 375.254 892.518 412.662C883.724 418.403 874.565 423.324 865.635 428.7H864.268C826.906 400.633 785.625 381.861 740.425 372.201V372.247ZM1114.14 634.467C1104.85 632.781 1095.05 631.915 1085.89 629.591C1078.78 567.351 1059.14 509.986 1026.02 459.091L986.607 518.962L953.938 466.336L1023.97 457.542L1024.97 456.54C1011.76 435.216 995.902 414.758 977.768 395.302C981.823 386.69 987.746 378.534 991.801 369.923H992.804C1031.72 410.52 1060.65 455.355 1081.47 503.379C1098.88 544.341 1111.41 588.447 1114.09 634.467H1114.14ZM991.801 983.258C986.926 974.965 982.324 966.308 977.768 957.879C995.902 938.423 1011.76 917.965 1024.97 896.459L1023.97 895.456L953.938 886.298L986.607 834.036L1026.52 894.089C1058.83 842.147 1078.78 785.146 1086.39 723.088L1114.64 718.669C1104.48 819.456 1064.57 907.759 992.849 983.258H991.847H991.801ZM742.476 963.301L759.061 861.967L845.632 912.543L848.685 915.094C816.244 938.423 780.886 954.507 742.476 963.301ZM864.769 923.706L892.518 940.291C860.714 965.488 826.678 985.445 789.68 998.294C771.91 1004.4 753.138 1010.32 734.684 1012.01L739.56 981.208C785.215 971.913 826.86 952.274 864.724 923.706H864.769ZM760.428 852.171C764.483 827.84 767.855 802.779 772.639 779.086L966.149 972.961L762.478 854.221L760.428 852.171ZM861.398 759.63L962.732 743.045C953.755 781.638 938.036 817.633 914.024 849.3L913.523 848.799L861.443 759.63H861.398ZM980.183 741.04L981.185 740.175L1011.8 735.254C1001.83 793.758 977.449 846.748 939.221 893.087C934.163 884.111 929.242 874.998 923.683 866.341V864.837C951.887 827.43 970.705 786.194 980.183 741.04ZM718.099 1114.71C719.648 1105.41 720.651 1095.57 723.02 1086.46C785.26 1079.53 842.625 1059.71 893.566 1026.59L833.512 987.176L886.093 954.553L894.887 1024.72L895.889 1025.59C917.35 1012.42 937.854 996.471 957.264 978.383C965.875 982.438 974.031 988.361 982.643 992.416V993.419C941.863 1032.33 897.211 1061.26 849.186 1082.04C808.225 1099.45 764.119 1111.98 718.054 1114.71H718.099ZM686.478 680.623H1293.89L776.968 764.551L770.224 765.053L686.478 680.623ZM680.053 58.6306L763.982 575.416L764.301 582.341L680.053 666.088V58.6306ZM360.013 369.877C365.07 378.17 369.49 386.645 374.229 395.256C355.958 414.712 340.238 435.17 326.842 456.494L327.845 457.497L398.013 466.792L365.389 518.917L325.475 459.046C292.988 510.988 273.031 567.989 265.422 630.047L237.173 634.421C247.333 533.588 287.43 445.285 358.965 369.877H359.967H360.013ZM609.521 389.88L592.935 490.713L506.136 440.456L503.266 438.086C535.616 414.758 570.928 398.674 609.521 389.88ZM487.227 429.247C478.114 423.825 467.589 418.266 459.798 412.662C506.455 374.57 558.899 350.421 617.266 340.58L612.391 371.7C566.554 381.177 525.091 400.815 487.227 429.201V429.247ZM591.432 501.01C587.377 525.387 584.005 550.401 579.221 574.094L385.893 380.084L589.381 499.005L591.432 501.056V501.01ZM490.599 593.505L389.265 610.09C398.013 571.497 413.778 535.502 437.973 503.835L490.599 593.505ZM371.677 611.958L370.675 612.96L340.056 617.836C349.715 559.332 374.73 507.07 412.092 460.003L428.176 486.749V488.252C400.064 525.615 381.155 566.895 371.632 611.912L371.677 611.958ZM633.897 237.788C632.211 247.447 631.391 257.426 628.976 266.538C566.691 273.646 509.371 293.467 458.431 326.592L518.347 366.004L465.721 398.674L456.927 328.46L455.925 327.457C434.601 340.808 414.143 356.573 394.687 374.798C386.03 370.06 377.601 365.685 369.308 360.582V359.58C444.762 288.045 532.928 247.948 633.897 237.788ZM588.014 777.583L587.513 770.794L671.761 687.093L671.761 1294.55L588.014 777.583ZM389.265 743.045H390.313L490.098 759.63L439.841 846.247L437.471 849.3C414.143 816.813 398.013 781.638 389.265 743.045ZM428.678 865.339L412.092 893.087C374.73 846.065 349.67 793.803 340.056 735.254C350.718 736.074 360.514 739.309 371.176 740.175C380.608 785.83 400.246 827.429 428.678 865.339ZM499.894 760.997C524.271 765.053 549.65 768.424 573.343 773.163L379.514 966.673L499.939 760.952L499.894 760.997ZM487.227 923.706C524.772 952.32 566.053 971.229 611.343 980.706L612.391 981.709L617.266 1012.51C558.58 1002.85 506.455 977.836 459.433 940.291C468.409 934.186 477.841 929.31 487.227 923.706ZM592.935 861.967L609.521 963.301C570.974 954.325 534.932 938.605 503.266 914.593L503.767 914.092L592.935 862.013V861.967ZM369.308 992.416C377.965 988.361 385.893 982.438 394.687 978.383C414.143 996.471 434.601 1012.42 455.925 1025.59L456.927 1024.72L466.222 954.553L518.347 987.176L458.431 1027.09C510.374 1059.58 567.374 1079.53 629.478 1086.96L633.852 1115.21C532.882 1105.19 444.716 1065.14 369.262 993.419V992.416H369.308ZM237.173 718.714C246.832 720.218 256.811 721.266 265.924 723.635C273.031 785.875 292.852 843.24 325.794 894.135L365.389 834.082L398.013 886.845L327.845 895.502L326.842 896.504C340.193 918.01 355.958 938.469 374.229 957.924C369.49 966.354 365.07 975.011 360.013 983.303H359.01C287.43 907.85 247.333 819.547 237.218 718.714H237.173ZM57.879 672.376L574.846 588.629L581.59 588.128L665.518 672.376H57.879Z" fill="#F2F4F7"/>
</svg>
