<svg width="32" height="33" viewBox="0 0 32 33" fill="none" xmlns="http://www.w3.org/2000/svg">
<path d="M27.9836 15.1895L6.98364 3.20321C6.62966 3.00464 6.22364 2.91847 5.81952 2.95615C5.41539 2.99382 5.0323 3.15356 4.72112 3.41414C4.40994 3.67472 4.18541 4.02381 4.07735 4.41504C3.96929 4.80626 3.98282 5.22111 4.11614 5.60446L7.99114 16.9132C7.99064 16.9174 7.99064 16.9216 7.99114 16.9257C7.99044 16.9298 7.99044 16.9341 7.99114 16.9382L4.11614 28.272C4.00937 28.5735 3.9765 28.8963 4.02028 29.2132C4.06407 29.5301 4.18323 29.8318 4.36776 30.0932C4.5523 30.3545 4.79683 30.5677 5.08082 30.715C5.36481 30.8622 5.67999 30.9392 5.99989 30.9395C6.34698 30.9386 6.68797 30.8482 6.98989 30.677L27.9786 18.6707C28.2882 18.4973 28.5461 18.2446 28.7258 17.9386C28.9055 17.6326 29.0006 17.2843 29.0012 16.9294C29.0018 16.5745 28.908 16.2259 28.7294 15.9193C28.5508 15.6126 28.2939 15.359 27.9849 15.1845L27.9836 15.1895ZM5.99989 28.9395V28.9282L9.76739 17.9395H16.9999C17.2651 17.9395 17.5195 17.8341 17.707 17.6466C17.8945 17.459 17.9999 17.2047 17.9999 16.9395C17.9999 16.6742 17.8945 16.4199 17.707 16.2324C17.5195 16.0448 17.2651 15.9395 16.9999 15.9395H9.77739L6.00739 4.95446L5.99989 4.93946L26.9999 16.9182L5.99989 28.9395Z" fill="#ABB1BA"/>
</svg>
