<svg width="20" height="21" viewBox="0 0 20 21" fill="none" xmlns="http://www.w3.org/2000/svg">
<path d="M6.875 8.84473C6.875 8.67897 6.94085 8.51999 7.05806 8.40278C7.17527 8.28557 7.33424 8.21973 7.5 8.21973H12.5C12.6658 8.21973 12.8247 8.28557 12.9419 8.40278C13.0592 8.51999 13.125 8.67897 13.125 8.84473C13.125 9.01049 13.0592 9.16946 12.9419 9.28667C12.8247 9.40388 12.6658 9.46973 12.5 9.46973H7.5C7.33424 9.46973 7.17527 9.40388 7.05806 9.28667C6.94085 9.16946 6.875 9.01049 6.875 8.84473ZM7.5 11.9697H12.5C12.6658 11.9697 12.8247 11.9039 12.9419 11.7867C13.0592 11.6695 13.125 11.5105 13.125 11.3447C13.125 11.179 13.0592 11.02 12.9419 10.9028C12.8247 10.7856 12.6658 10.7197 12.5 10.7197H7.5C7.33424 10.7197 7.17527 10.7856 7.05806 10.9028C6.94085 11.02 6.875 11.179 6.875 11.3447C6.875 11.5105 6.94085 11.6695 7.05806 11.7867C7.17527 11.9039 7.33424 11.9697 7.5 11.9697ZM18.125 5.09473V15.0947C18.125 15.4262 17.9933 15.7442 17.7589 15.9786C17.5245 16.213 17.2065 16.3447 16.875 16.3447H12.2289L11.0695 18.2424C10.9579 18.4267 10.8006 18.5791 10.6128 18.6846C10.4249 18.7902 10.213 18.8455 9.9975 18.845C9.78203 18.8445 9.57034 18.7884 9.38297 18.6819C9.1956 18.5755 9.03891 18.4225 8.92812 18.2377L7.77109 16.3447H3.125C2.79348 16.3447 2.47554 16.213 2.24112 15.9786C2.0067 15.7442 1.875 15.4262 1.875 15.0947V5.09473C1.875 4.76321 2.0067 4.44526 2.24112 4.21084C2.47554 3.97642 2.79348 3.84473 3.125 3.84473H16.875C17.2065 3.84473 17.5245 3.97642 17.7589 4.21084C17.9933 4.44526 18.125 4.76321 18.125 5.09473ZM16.875 5.09473H3.125V15.0947H7.77109C7.98628 15.0953 8.19772 15.1511 8.38514 15.2569C8.57255 15.3626 8.72966 15.5147 8.84141 15.6986L10 17.5947L11.1578 15.6947C11.27 15.5114 11.4275 15.3599 11.615 15.2549C11.8026 15.1498 12.0139 15.0947 12.2289 15.0947H16.875V5.09473Z" fill="#7A7F89"/>
</svg>
