<svg width="20" height="21" viewBox="0 0 20 21" fill="none" xmlns="http://www.w3.org/2000/svg">
<path d="M7.05782 5.75664C6.99971 5.6986 6.95361 5.62967 6.92215 5.55379C6.8907 5.47792 6.87451 5.39659 6.87451 5.31446C6.87451 5.23232 6.8907 5.15099 6.92215 5.07512C6.95361 4.99925 6.99971 4.93031 7.05782 4.87227L9.55782 2.37227C9.61586 2.31416 9.68479 2.26806 9.76067 2.23661C9.83654 2.20515 9.91787 2.18896 10 2.18896C10.0821 2.18896 10.1635 2.20515 10.2393 2.23661C10.3152 2.26806 10.3841 2.31416 10.4422 2.37227L12.9422 4.87227C13.0595 4.98954 13.1254 5.1486 13.1254 5.31446C13.1254 5.48031 13.0595 5.63937 12.9422 5.75664C12.8249 5.87392 12.6659 5.9398 12.5 5.9398C12.3342 5.9398 12.1751 5.87392 12.0578 5.75664L10.625 4.32305V8.43946C10.625 8.60522 10.5592 8.76419 10.4419 8.8814C10.3247 8.99861 10.1658 9.06446 10 9.06446C9.83424 9.06446 9.67527 8.99861 9.55806 8.8814C9.44085 8.76419 9.375 8.60522 9.375 8.43946V4.32305L7.94219 5.75664C7.88415 5.81475 7.81521 5.86085 7.73934 5.89231C7.66347 5.92376 7.58214 5.93995 7.5 5.93995C7.41787 5.93995 7.33654 5.92376 7.26067 5.89231C7.18479 5.86085 7.11586 5.81475 7.05782 5.75664ZM12.0578 16.1223L10.625 17.5559V13.4395C10.625 13.2737 10.5592 13.1147 10.4419 12.9975C10.3247 12.8803 10.1658 12.8145 10 12.8145C9.83424 12.8145 9.67527 12.8803 9.55806 12.9975C9.44085 13.1147 9.375 13.2737 9.375 13.4395V17.5559L7.94219 16.1223C7.82492 16.005 7.66586 15.9391 7.5 15.9391C7.33415 15.9391 7.17509 16.005 7.05782 16.1223C6.94054 16.2395 6.87466 16.3986 6.87466 16.5645C6.87466 16.7303 6.94054 16.8894 7.05782 17.0066L9.55782 19.5066C9.61586 19.5648 9.68479 19.6109 9.76067 19.6423C9.83654 19.6738 9.91787 19.6899 10 19.6899C10.0821 19.6899 10.1635 19.6738 10.2393 19.6423C10.3152 19.6109 10.3841 19.5648 10.4422 19.5066L12.9422 17.0066C13.0595 16.8894 13.1254 16.7303 13.1254 16.5645C13.1254 16.3986 13.0595 16.2395 12.9422 16.1223C12.8249 16.005 12.6659 15.9391 12.5 15.9391C12.3342 15.9391 12.1751 16.005 12.0578 16.1223ZM18.5672 10.4973L16.0672 7.99727C15.9499 7.87999 15.7909 7.81411 15.625 7.81411C15.4592 7.81411 15.3001 7.87999 15.1828 7.99727C15.0655 8.11454 14.9997 8.2736 14.9997 8.43946C14.9997 8.60531 15.0655 8.76437 15.1828 8.88164L16.6164 10.3145H12.5C12.3342 10.3145 12.1753 10.3803 12.0581 10.4975C11.9409 10.6147 11.875 10.7737 11.875 10.9395C11.875 11.1052 11.9409 11.2642 12.0581 11.3814C12.1753 11.4986 12.3342 11.5645 12.5 11.5645H16.6164L15.1828 12.9973C15.0655 13.1145 14.9997 13.2736 14.9997 13.4395C14.9997 13.6053 15.0655 13.7644 15.1828 13.8816C15.3001 13.9989 15.4592 14.0648 15.625 14.0648C15.7909 14.0648 15.9499 13.9989 16.0672 13.8816L18.5672 11.3816C18.6253 11.3236 18.6714 11.2547 18.7029 11.1788C18.7343 11.1029 18.7505 11.0216 18.7505 10.9395C18.7505 10.8573 18.7343 10.776 18.7029 10.7001C18.6714 10.6242 18.6253 10.5553 18.5672 10.4973ZM3.3836 11.5645H7.5C7.66576 11.5645 7.82473 11.4986 7.94195 11.3814C8.05916 11.2642 8.125 11.1052 8.125 10.9395C8.125 10.7737 8.05916 10.6147 7.94195 10.4975C7.82473 10.3803 7.66576 10.3145 7.5 10.3145H3.3836L4.81719 8.88164C4.93447 8.76437 5.00035 8.60531 5.00035 8.43946C5.00035 8.2736 4.93447 8.11454 4.81719 7.99727C4.69992 7.87999 4.54086 7.81411 4.375 7.81411C4.20915 7.81411 4.05009 7.87999 3.93282 7.99727L1.43282 10.4973C1.37471 10.5553 1.32861 10.6242 1.29715 10.7001C1.2657 10.776 1.24951 10.8573 1.24951 10.9395C1.24951 11.0216 1.2657 11.1029 1.29715 11.1788C1.32861 11.2547 1.37471 11.3236 1.43282 11.3816L3.93282 13.8816C4.05009 13.9989 4.20915 14.0648 4.375 14.0648C4.54086 14.0648 4.69992 13.9989 4.81719 13.8816C4.93447 13.7644 5.00035 13.6053 5.00035 13.4395C5.00035 13.2736 4.93447 13.1145 4.81719 12.9973L3.3836 11.5645Z" fill="#7A7F89"/>
</svg>
