<svg width="20" height="21" viewBox="0 0 20 21" fill="none" xmlns="http://www.w3.org/2000/svg">
<path d="M17.2703 9.58242L16.25 9.2418V5.31445C16.25 4.98293 16.1183 4.66499 15.8839 4.43057C15.6495 4.19615 15.3315 4.06445 15 4.06445H10.625V2.81445C10.625 2.64869 10.5592 2.48972 10.4419 2.37251C10.3247 2.2553 10.1658 2.18945 10 2.18945C9.83424 2.18945 9.67527 2.2553 9.55806 2.37251C9.44085 2.48972 9.375 2.64869 9.375 2.81445V4.06445H5C4.66848 4.06445 4.35054 4.19615 4.11612 4.43057C3.8817 4.66499 3.75 4.98293 3.75 5.31445V9.2418L2.72969 9.58242C2.48066 9.66544 2.26409 9.82474 2.11069 10.0377C1.95728 10.2507 1.87482 10.5066 1.875 10.7691V13.4473C1.87483 13.5052 1.88299 13.5628 1.89922 13.6184C3.12735 17.9223 8.62735 19.4043 9.71719 19.6574C9.90331 19.7001 10.0967 19.7001 10.2828 19.6574C11.3727 19.4043 16.8727 17.9223 18.1008 13.6184C18.117 13.5628 18.1252 13.5052 18.125 13.4473V10.7691C18.1252 10.5066 18.0427 10.2507 17.8893 10.0377C17.7359 9.82474 17.5193 9.66544 17.2703 9.58242ZM5 5.31445H15V8.82461L10.1977 7.22148C10.0694 7.17871 9.93065 7.17871 9.80235 7.22148L5 8.82461V5.31445ZM16.875 13.3566C16.4234 14.841 15.2695 16.1043 13.4414 17.116C12.3567 17.7049 11.1998 18.1498 10 18.4395C8.80155 18.1495 7.64599 17.7046 6.5625 17.116C4.73125 16.1043 3.57657 14.8402 3.125 13.3566V10.7684L9.375 8.68242V14.0645C9.375 14.2302 9.44085 14.3892 9.55806 14.5064C9.67527 14.6236 9.83424 14.6895 10 14.6895C10.1658 14.6895 10.3247 14.6236 10.4419 14.5064C10.5592 14.3892 10.625 14.2302 10.625 14.0645V8.68242L16.875 10.7691V13.3566Z" fill="#7A7F89"/>
</svg>
