<svg width="25" height="25" viewBox="0 0 25 25" fill="none" xmlns="http://www.w3.org/2000/svg">
<path d="M20.5306 8.65883L15.2806 3.40883C15.2109 3.3392 15.1282 3.28399 15.0371 3.24635C14.9461 3.20871 14.8485 3.18938 14.75 3.18945H5.75C5.35218 3.18945 4.97064 3.34749 4.68934 3.62879C4.40804 3.9101 4.25 4.29163 4.25 4.68945V21.1895C4.25 21.5873 4.40804 21.9688 4.68934 22.2501C4.97064 22.5314 5.35218 22.6895 5.75 22.6895H19.25C19.6478 22.6895 20.0294 22.5314 20.3107 22.2501C20.592 21.9688 20.75 21.5873 20.75 21.1895V9.18945C20.7501 9.09093 20.7307 8.99336 20.6931 8.90232C20.6555 8.81127 20.6003 8.72853 20.5306 8.65883ZM14.75 9.18945V5.06445L18.875 9.18945H14.75Z" fill="#ABB1BA"/>
</svg>
