<svg width="20" height="21" viewBox="0 0 20 21" fill="none" xmlns="http://www.w3.org/2000/svg">
<path d="M8.75 17.8145C8.75 17.9802 8.68415 18.1392 8.56694 18.2564C8.44973 18.3736 8.29076 18.4395 8.125 18.4395H3.75C3.41848 18.4395 3.10054 18.3078 2.86612 18.0733C2.6317 17.8389 2.5 17.521 2.5 17.1895V4.68945C2.5 4.35793 2.6317 4.03999 2.86612 3.80557C3.10054 3.57115 3.41848 3.43945 3.75 3.43945H8.125C8.29076 3.43945 8.44973 3.5053 8.56694 3.62251C8.68415 3.73972 8.75 3.89869 8.75 4.06445C8.75 4.23021 8.68415 4.38918 8.56694 4.50639C8.44973 4.6236 8.29076 4.68945 8.125 4.68945H3.75V17.1895H8.125C8.29076 17.1895 8.44973 17.2553 8.56694 17.3725C8.68415 17.4897 8.75 17.6487 8.75 17.8145ZM17.3172 10.4973L14.1922 7.37227C14.0749 7.25499 13.9159 7.18911 13.75 7.18911C13.5841 7.18911 13.4251 7.25499 13.3078 7.37227C13.1905 7.48954 13.1247 7.6486 13.1247 7.81445C13.1247 7.98031 13.1905 8.13937 13.3078 8.25664L15.3664 10.3145H8.125C7.95924 10.3145 7.80027 10.3803 7.68306 10.4975C7.56585 10.6147 7.5 10.7737 7.5 10.9395C7.5 11.1052 7.56585 11.2642 7.68306 11.3814C7.80027 11.4986 7.95924 11.5645 8.125 11.5645H15.3664L13.3078 13.6223C13.1905 13.7395 13.1247 13.8986 13.1247 14.0645C13.1247 14.2303 13.1905 14.3894 13.3078 14.5066C13.4251 14.6239 13.5841 14.6898 13.75 14.6898C13.9159 14.6898 14.0749 14.6239 14.1922 14.5066L17.3172 11.3816C17.3753 11.3236 17.4214 11.2547 17.4529 11.1788C17.4843 11.1029 17.5005 11.0216 17.5005 10.9395C17.5005 10.8573 17.4843 10.776 17.4529 10.7001C17.4214 10.6242 17.3753 10.5553 17.3172 10.4973Z" fill="#7A7F89"/>
</svg>
