<svg width="24" height="25" viewBox="0 0 24 25" fill="none" xmlns="http://www.w3.org/2000/svg">
<path d="M20.0306 8.65883L14.7806 3.40883C14.7109 3.3392 14.6282 3.28399 14.5371 3.24635C14.4461 3.20871 14.3485 3.18938 14.25 3.18945H5.25C4.85218 3.18945 4.47064 3.34749 4.18934 3.62879C3.90804 3.9101 3.75 4.29163 3.75 4.68945V21.1895C3.75 21.5873 3.90804 21.9688 4.18934 22.2501C4.47064 22.5314 4.85218 22.6895 5.25 22.6895H18.75C19.1478 22.6895 19.5294 22.5314 19.8107 22.2501C20.092 21.9688 20.25 21.5873 20.25 21.1895V9.18945C20.2501 9.09093 20.2307 8.99336 20.1931 8.90232C20.1555 8.81127 20.1003 8.72853 20.0306 8.65883ZM14.25 9.18945V5.06445L18.375 9.18945H14.25Z" fill="#ABB1BA"/>
</svg>
