<svg width="20" height="21" viewBox="0 0 20 21" fill="none" xmlns="http://www.w3.org/2000/svg">
<path d="M8.75 17.5947C8.75 17.7605 8.68415 17.9195 8.56694 18.0367C8.44973 18.1539 8.29076 18.2197 8.125 18.2197H3.75C3.41848 18.2197 3.10054 18.088 2.86612 17.8536C2.6317 17.6192 2.5 17.3012 2.5 16.9697V4.46973C2.5 4.13821 2.6317 3.82026 2.86612 3.58584C3.10054 3.35142 3.41848 3.21973 3.75 3.21973H8.125C8.29076 3.21973 8.44973 3.28557 8.56694 3.40278C8.68415 3.52 8.75 3.67897 8.75 3.84473C8.75 4.01049 8.68415 4.16946 8.56694 4.28667C8.44973 4.40388 8.29076 4.46973 8.125 4.46973H3.75V16.9697H8.125C8.29076 16.9697 8.44973 17.0356 8.56694 17.1528C8.68415 17.27 8.75 17.429 8.75 17.5947ZM17.3172 10.2775L14.1922 7.15254C14.0749 7.03526 13.9159 6.96938 13.75 6.96938C13.5841 6.96938 13.4251 7.03526 13.3078 7.15254C13.1905 7.26981 13.1247 7.42887 13.1247 7.59473C13.1247 7.76058 13.1905 7.91964 13.3078 8.03691L15.3664 10.0947H8.125C7.95924 10.0947 7.80027 10.1606 7.68306 10.2778C7.56585 10.395 7.5 10.554 7.5 10.7197C7.5 10.8855 7.56585 11.0445 7.68306 11.1617C7.80027 11.2789 7.95924 11.3447 8.125 11.3447H15.3664L13.3078 13.4025C13.1905 13.5198 13.1247 13.6789 13.1247 13.8447C13.1247 14.0106 13.1905 14.1696 13.3078 14.2869C13.4251 14.4042 13.5841 14.4701 13.75 14.4701C13.9159 14.4701 14.0749 14.4042 14.1922 14.2869L17.3172 11.1619C17.3753 11.1039 17.4214 11.0349 17.4529 10.9591C17.4843 10.8832 17.5005 10.8019 17.5005 10.7197C17.5005 10.6376 17.4843 10.5563 17.4529 10.4804C17.4214 10.4045 17.3753 10.3356 17.3172 10.2775Z" fill="#7A7F89"/>
</svg>
