<svg width="24" height="25" viewBox="0 0 24 25" fill="none" xmlns="http://www.w3.org/2000/svg">
<path d="M21.0001 12.9394C21.0001 13.1383 20.9211 13.3291 20.7804 13.4697C20.6398 13.6104 20.449 13.6894 20.2501 13.6894H5.56041L11.0307 19.1588C11.1004 19.2284 11.1557 19.3112 11.1934 19.4022C11.2311 19.4933 11.2505 19.5908 11.2505 19.6894C11.2505 19.7879 11.2311 19.8855 11.1934 19.9766C11.1557 20.0676 11.1004 20.1503 11.0307 20.22C10.961 20.2897 10.8783 20.345 10.7873 20.3827C10.6962 20.4204 10.5986 20.4398 10.5001 20.4398C10.4016 20.4398 10.304 20.4204 10.2129 20.3827C10.1219 20.345 10.0392 20.2897 9.96948 20.22L3.21948 13.47C3.14974 13.4004 3.09443 13.3176 3.05668 13.2266C3.01894 13.1355 2.99951 13.0379 2.99951 12.9394C2.99951 12.8408 3.01894 12.7432 3.05668 12.6522C3.09443 12.5611 3.14974 12.4784 3.21948 12.4088L9.96948 5.65876C10.1102 5.51803 10.3011 5.43896 10.5001 5.43896C10.6991 5.43896 10.89 5.51803 11.0307 5.65876C11.1715 5.79949 11.2505 5.99036 11.2505 6.18938C11.2505 6.3884 11.1715 6.57928 11.0307 6.72001L5.56041 12.1894H20.2501C20.449 12.1894 20.6398 12.2684 20.7804 12.4091C20.9211 12.5497 21.0001 12.7405 21.0001 12.9394Z" fill="#0354A6"/>
</svg>
