<svg width="20" height="21" viewBox="0 0 20 21" fill="none" xmlns="http://www.w3.org/2000/svg">
<path d="M18.0407 17.2822C16.8508 15.2251 15.0172 13.7501 12.8774 13.0509C13.9358 12.4208 14.7582 11.4607 15.2182 10.3179C15.6781 9.17521 15.7503 7.91309 15.4235 6.7254C15.0968 5.53771 14.3892 4.49012 13.4094 3.7435C12.4296 2.99689 11.2318 2.59253 10 2.59253C8.76821 2.59253 7.57044 2.99689 6.59067 3.7435C5.6109 4.49012 4.90331 5.53771 4.57654 6.7254C4.24978 7.91309 4.32193 9.17521 4.78189 10.3179C5.24186 11.4607 6.06422 12.4208 7.12268 13.0509C4.98284 13.7493 3.14925 15.2243 1.9594 17.2822C1.91577 17.3533 1.88683 17.4325 1.87429 17.515C1.86174 17.5975 1.86585 17.6817 1.88638 17.7626C1.9069 17.8435 1.94341 17.9195 1.99377 17.986C2.04413 18.0526 2.10731 18.1084 2.17958 18.1501C2.25185 18.1919 2.33175 18.2187 2.41457 18.2291C2.49738 18.2394 2.58143 18.2331 2.66176 18.2105C2.74209 18.1878 2.81708 18.1493 2.88228 18.0972C2.94749 18.0451 3.00161 17.9805 3.04143 17.9072C4.51331 15.3634 7.11487 13.8447 10 13.8447C12.8852 13.8447 15.4867 15.3634 16.9586 17.9072C16.9984 17.9805 17.0526 18.0451 17.1178 18.0972C17.183 18.1493 17.258 18.1878 17.3383 18.2105C17.4186 18.2331 17.5027 18.2394 17.5855 18.2291C17.6683 18.2187 17.7482 18.1919 17.8205 18.1501C17.8927 18.1084 17.9559 18.0526 18.0063 17.986C18.0566 17.9195 18.0932 17.8435 18.1137 17.7626C18.1342 17.6817 18.1383 17.5975 18.1258 17.515C18.1132 17.4325 18.0843 17.3533 18.0407 17.2822ZM5.62503 8.21965C5.62503 7.35436 5.88162 6.5085 6.36235 5.78904C6.84308 5.06957 7.52636 4.50881 8.32579 4.17768C9.12521 3.84655 10.0049 3.75991 10.8535 3.92872C11.7022 4.09753 12.4818 4.51421 13.0936 5.12606C13.7055 5.73792 14.1222 6.51747 14.291 7.36613C14.4598 8.2148 14.3731 9.09447 14.042 9.8939C13.7109 10.6933 13.1501 11.3766 12.4306 11.8573C11.7112 12.3381 10.8653 12.5947 10 12.5947C8.84009 12.5934 7.72801 12.1321 6.90781 11.3119C6.0876 10.4917 5.62627 9.3796 5.62503 8.21965Z" fill="#7A7F89"/>
</svg>
