<svg width="20" height="21" viewBox="0 0 20 21" fill="none" xmlns="http://www.w3.org/2000/svg">
<path d="M17.2703 9.3627L16.25 9.02207V5.09473C16.25 4.76321 16.1183 4.44526 15.8839 4.21084C15.6495 3.97642 15.3315 3.84473 15 3.84473H10.625V2.59473C10.625 2.42897 10.5592 2.27 10.4419 2.15278C10.3247 2.03557 10.1658 1.96973 10 1.96973C9.83424 1.96973 9.67527 2.03557 9.55806 2.15278C9.44085 2.27 9.375 2.42897 9.375 2.59473V3.84473H5C4.66848 3.84473 4.35054 3.97642 4.11612 4.21084C3.8817 4.44526 3.75 4.76321 3.75 5.09473V9.02207L2.72969 9.3627C2.48066 9.44571 2.26409 9.60501 2.11069 9.81802C1.95728 10.031 1.87482 10.2869 1.875 10.5494V13.2275C1.87483 13.2854 1.88299 13.3431 1.89922 13.3986C3.12735 17.7025 8.62735 19.1846 9.71719 19.4377C9.90331 19.4804 10.0967 19.4804 10.2828 19.4377C11.3727 19.1846 16.8727 17.7025 18.1008 13.3986C18.117 13.3431 18.1252 13.2854 18.125 13.2275V10.5494C18.1252 10.2869 18.0427 10.031 17.8893 9.81802C17.7359 9.60501 17.5193 9.44571 17.2703 9.3627ZM5 5.09473H15V8.60488L10.1977 7.00176C10.0694 6.95899 9.93065 6.95899 9.80235 7.00176L5 8.60488V5.09473ZM16.875 13.1369C16.4234 14.6213 15.2695 15.8846 13.4414 16.8963C12.3567 17.4852 11.1998 17.9301 10 18.2197C8.80155 17.9297 7.64599 17.4849 6.5625 16.8963C4.73125 15.8846 3.57657 14.6205 3.125 13.1369V10.5486L9.375 8.4627V13.8447C9.375 14.0105 9.44085 14.1695 9.55806 14.2867C9.67527 14.4039 9.83424 14.4697 10 14.4697C10.1658 14.4697 10.3247 14.4039 10.4419 14.2867C10.5592 14.1695 10.625 14.0105 10.625 13.8447V8.4627L16.875 10.5494V13.1369Z" fill="#7A7F89"/>
</svg>
