<svg width="20" height="21" viewBox="0 0 20 21" fill="none" xmlns="http://www.w3.org/2000/svg">
<path d="M7.05782 5.53692C6.99971 5.47887 6.95361 5.40994 6.92215 5.33407C6.8907 5.25819 6.87451 5.17686 6.87451 5.09473C6.87451 5.0126 6.8907 4.93127 6.92215 4.85539C6.95361 4.77952 6.99971 4.71059 7.05782 4.65254L9.55782 2.15254C9.61586 2.09443 9.68479 2.04833 9.76067 2.01688C9.83654 1.98543 9.91787 1.96924 10 1.96924C10.0821 1.96924 10.1635 1.98543 10.2393 2.01688C10.3152 2.04833 10.3841 2.09443 10.4422 2.15254L12.9422 4.65254C13.0595 4.76982 13.1254 4.92888 13.1254 5.09473C13.1254 5.26058 13.0595 5.41964 12.9422 5.53692C12.8249 5.65419 12.6659 5.72008 12.5 5.72008C12.3342 5.72008 12.1751 5.65419 12.0578 5.53692L10.625 4.10332V8.21973C10.625 8.38549 10.5592 8.54446 10.4419 8.66167C10.3247 8.77888 10.1658 8.84473 10 8.84473C9.83424 8.84473 9.67527 8.77888 9.55806 8.66167C9.44085 8.54446 9.375 8.38549 9.375 8.21973V4.10332L7.94219 5.53692C7.88415 5.59503 7.81521 5.64113 7.73934 5.67258C7.66347 5.70403 7.58214 5.72022 7.5 5.72022C7.41787 5.72022 7.33654 5.70403 7.26067 5.67258C7.18479 5.64113 7.11586 5.59503 7.05782 5.53692ZM12.0578 15.9025L10.625 17.3361V13.2197C10.625 13.054 10.5592 12.895 10.4419 12.7778C10.3247 12.6606 10.1658 12.5947 10 12.5947C9.83424 12.5947 9.67527 12.6606 9.55806 12.7778C9.44085 12.895 9.375 13.054 9.375 13.2197V17.3361L7.94219 15.9025C7.82492 15.7853 7.66586 15.7194 7.5 15.7194C7.33415 15.7194 7.17509 15.7853 7.05782 15.9025C6.94054 16.0198 6.87466 16.1789 6.87466 16.3447C6.87466 16.5106 6.94054 16.6696 7.05782 16.7869L9.55782 19.2869C9.61586 19.345 9.68479 19.3911 9.76067 19.4226C9.83654 19.454 9.91787 19.4702 10 19.4702C10.0821 19.4702 10.1635 19.454 10.2393 19.4226C10.3152 19.3911 10.3841 19.345 10.4422 19.2869L12.9422 16.7869C13.0595 16.6696 13.1254 16.5106 13.1254 16.3447C13.1254 16.1789 13.0595 16.0198 12.9422 15.9025C12.8249 15.7853 12.6659 15.7194 12.5 15.7194C12.3342 15.7194 12.1751 15.7853 12.0578 15.9025ZM18.5672 10.2775L16.0672 7.77754C15.9499 7.66027 15.7909 7.59438 15.625 7.59438C15.4592 7.59438 15.3001 7.66027 15.1828 7.77754C15.0655 7.89482 14.9997 8.05388 14.9997 8.21973C14.9997 8.38558 15.0655 8.54464 15.1828 8.66192L16.6164 10.0947H12.5C12.3342 10.0947 12.1753 10.1606 12.0581 10.2778C11.9409 10.395 11.875 10.554 11.875 10.7197C11.875 10.8855 11.9409 11.0445 12.0581 11.1617C12.1753 11.2789 12.3342 11.3447 12.5 11.3447H16.6164L15.1828 12.7775C15.0655 12.8948 14.9997 13.0539 14.9997 13.2197C14.9997 13.3856 15.0655 13.5446 15.1828 13.6619C15.3001 13.7792 15.4592 13.8451 15.625 13.8451C15.7909 13.8451 15.9499 13.7792 16.0672 13.6619L18.5672 11.1619C18.6253 11.1039 18.6714 11.0349 18.7029 10.9591C18.7343 10.8832 18.7505 10.8019 18.7505 10.7197C18.7505 10.6376 18.7343 10.5563 18.7029 10.4804C18.6714 10.4045 18.6253 10.3356 18.5672 10.2775ZM3.3836 11.3447H7.5C7.66576 11.3447 7.82473 11.2789 7.94195 11.1617C8.05916 11.0445 8.125 10.8855 8.125 10.7197C8.125 10.554 8.05916 10.395 7.94195 10.2778C7.82473 10.1606 7.66576 10.0947 7.5 10.0947H3.3836L4.81719 8.66192C4.93447 8.54464 5.00035 8.38558 5.00035 8.21973C5.00035 8.05388 4.93447 7.89482 4.81719 7.77754C4.69992 7.66027 4.54086 7.59438 4.375 7.59438C4.20915 7.59438 4.05009 7.66027 3.93282 7.77754L1.43282 10.2775C1.37471 10.3356 1.32861 10.4045 1.29715 10.4804C1.2657 10.5563 1.24951 10.6376 1.24951 10.7197C1.24951 10.8019 1.2657 10.8832 1.29715 10.9591C1.32861 11.0349 1.37471 11.1039 1.43282 11.1619L3.93282 13.6619C4.05009 13.7792 4.20915 13.8451 4.375 13.8451C4.54086 13.8451 4.69992 13.7792 4.81719 13.6619C4.93447 13.5446 5.00035 13.3856 5.00035 13.2197C5.00035 13.0539 4.93447 12.8948 4.81719 12.7775L3.3836 11.3447Z" fill="#7A7F89"/>
</svg>
