<svg width="12" height="12" viewBox="0 0 12 12" fill="none" xmlns="http://www.w3.org/2000/svg">
<path fill-rule="evenodd" clip-rule="evenodd" d="M0.469426 0.469914C0.762319 0.177021 1.23719 0.177021 1.53009 0.469914L5.99976 4.93958L10.4694 0.469914C10.7623 0.177021 11.2372 0.177021 11.5301 0.469914C11.823 0.762807 11.823 1.23768 11.5301 1.53057L7.06042 6.00024L11.5301 10.4699C11.823 10.7628 11.823 11.2377 11.5301 11.5306C11.2372 11.8235 10.7623 11.8235 10.4694 11.5306L5.99976 7.0609L1.53009 11.5306C1.23719 11.8235 0.762319 11.8235 0.469426 11.5306C0.176533 11.2377 0.176533 10.7628 0.469426 10.4699L4.9391 6.00024L0.469426 1.53057C0.176533 1.23768 0.176533 0.762807 0.469426 0.469914Z" fill="#17181C"/>
</svg>
