<svg width="24" height="25" viewBox="0 0 24 25" fill="none" xmlns="http://www.w3.org/2000/svg">
<path d="M21.0001 12.7197C21.0001 12.9186 20.9211 13.1093 20.7804 13.25C20.6398 13.3906 20.449 13.4697 20.2501 13.4697H5.56041L11.0307 18.939C11.1004 19.0087 11.1557 19.0914 11.1934 19.1825C11.2311 19.2735 11.2505 19.3711 11.2505 19.4697C11.2505 19.5682 11.2311 19.6658 11.1934 19.7568C11.1557 19.8479 11.1004 19.9306 11.0307 20.0003C10.961 20.07 10.8783 20.1252 10.7873 20.163C10.6962 20.2007 10.5986 20.2201 10.5001 20.2201C10.4016 20.2201 10.304 20.2007 10.2129 20.163C10.1219 20.1252 10.0392 20.07 9.96948 20.0003L3.21948 13.2503C3.14974 13.1806 3.09443 13.0979 3.05668 13.0069C3.01894 12.9158 2.99951 12.8182 2.99951 12.7197C2.99951 12.6211 3.01894 12.5235 3.05668 12.4325C3.09443 12.3414 3.14974 12.2587 3.21948 12.189L9.96948 5.43903C10.1102 5.2983 10.3011 5.21924 10.5001 5.21924C10.6991 5.21924 10.89 5.2983 11.0307 5.43903C11.1715 5.57976 11.2505 5.77063 11.2505 5.96966C11.2505 6.16868 11.1715 6.35955 11.0307 6.50028L5.56041 11.9697H20.2501C20.449 11.9697 20.6398 12.0487 20.7804 12.1893C20.9211 12.33 21.0001 12.5207 21.0001 12.7197Z" fill="#0354A6"/>
</svg>
