<svg width="20" height="21" viewBox="0 0 20 21" fill="none" xmlns="http://www.w3.org/2000/svg">
<path d="M6.875 9.06445C6.875 8.89869 6.94085 8.73972 7.05806 8.62251C7.17527 8.5053 7.33424 8.43945 7.5 8.43945H12.5C12.6658 8.43945 12.8247 8.5053 12.9419 8.62251C13.0592 8.73972 13.125 8.89869 13.125 9.06445C13.125 9.23021 13.0592 9.38918 12.9419 9.50639C12.8247 9.6236 12.6658 9.68945 12.5 9.68945H7.5C7.33424 9.68945 7.17527 9.6236 7.05806 9.50639C6.94085 9.38918 6.875 9.23021 6.875 9.06445ZM7.5 12.1895H12.5C12.6658 12.1895 12.8247 12.1236 12.9419 12.0064C13.0592 11.8892 13.125 11.7302 13.125 11.5645C13.125 11.3987 13.0592 11.2397 12.9419 11.1225C12.8247 11.0053 12.6658 10.9395 12.5 10.9395H7.5C7.33424 10.9395 7.17527 11.0053 7.05806 11.1225C6.94085 11.2397 6.875 11.3987 6.875 11.5645C6.875 11.7302 6.94085 11.8892 7.05806 12.0064C7.17527 12.1236 7.33424 12.1895 7.5 12.1895ZM18.125 5.31445V15.3145C18.125 15.646 17.9933 15.9639 17.7589 16.1983C17.5245 16.4328 17.2065 16.5645 16.875 16.5645H12.2289L11.0695 18.4621C10.9579 18.6464 10.8006 18.7988 10.6128 18.9044C10.4249 19.0099 10.213 19.0652 9.9975 19.0647C9.78203 19.0642 9.57034 19.0081 9.38297 18.9017C9.1956 18.7953 9.03891 18.6422 8.92812 18.4574L7.77109 16.5645H3.125C2.79348 16.5645 2.47554 16.4328 2.24112 16.1983C2.0067 15.9639 1.875 15.646 1.875 15.3145V5.31445C1.875 4.98293 2.0067 4.66499 2.24112 4.43057C2.47554 4.19615 2.79348 4.06445 3.125 4.06445H16.875C17.2065 4.06445 17.5245 4.19615 17.7589 4.43057C17.9933 4.66499 18.125 4.98293 18.125 5.31445ZM16.875 5.31445H3.125V15.3145H7.77109C7.98628 15.315 8.19772 15.3708 8.38514 15.4766C8.57255 15.5823 8.72966 15.7345 8.84141 15.9184L10 17.8145L11.1578 15.9145C11.27 15.7311 11.4275 15.5797 11.615 15.4746C11.8026 15.3695 12.0139 15.3144 12.2289 15.3145H16.875V5.31445Z" fill="#7A7F89"/>
</svg>
